#!OML:ASF \\Waltz\H\Terrain\Patient Classification 1\Animal2\Wednesday\Animal2.ASF
:FULLY-SPECIFIED
:DEGREES
399
root 7.87236 16.7161 -4.28022 -5.65756 -49.0973 6.68414
lowerback 15.6706 -0.719548 2.90871
upperback -2.0548 -0.38693 0.0682733
thorax -11.1117 -0.365081 -1.47902
lowerneck 7.02319 9.77762 17.5421
upperneck -28.7031 10.2163 -25.6697
head -7.03934 5.61478 -12.8163
rclavicle 2.59911e-014 7.15625e-015
rhumerus -20.3468 -36.7633 -5.6873
rradius 114.549
rwrist 16.5749
rhand -47.4807 25.5058
rfingers 7.12502
rthumb -20.1693 -3.46719
lclavicle 2.59911e-014 7.15625e-015
lhumerus -34.1541 24.1948 -13.05
lradius 92.9361
lwrist 7.49082
lhand -33.3912 25.9885
lfingers 7.12502
lthumb -6.59186 55.8659
rfemur -23.5242 -35.0111 1.5981
rtibia 60.0234
rfoot -17.0908 -4.64597
rtoes 6.89802
lfemur -32.2374 48.0759 0.939298
ltibia 73.9278
lfoot 5.97284 -5.0514
ltoes -32.2917
400
root 7.87365 16.6695 -4.30107 -6.01279 -49.1173 7.01501
lowerback 16.2378 -0.650412 2.63556
upperback -2.26867 -0.357977 -0.212807
thorax -11.6828 -0.354185 -1.63763
lowerneck 7.65801 9.57399 17.0868
upperneck -29.5341 9.95857 -25.0779
head -7.59031 5.47927 -12.6892
rclavicle -1.57288e-014 1.90833e-014
rhumerus -20.1431 -36.4041 -5.8522
rradius 114.051
rwrist 15.3472
rhand -44.054 23.7173
rfingers 7.12502
rthumb -16.8731 -5.5697
lclavicle -1.57288e-014 1.90833e-014
lhumerus -34.4747 24.8906 -14.3189
lradius 93.5336
lwrist 10.5652
lhand -32.6048 26.5931
lfingers 7.12502
lthumb -5.83267 56.4929
rfemur -22.8615 -34.0585 1.76946
rtibia 58.808
rfoot -19.8028 -5.20938
rtoes 13.6889
lfemur -32.7883 48.4353 1.4162
ltibia 73.7124
lfoot 5.14111 -3.94516
ltoes -34.3093
401
root 7.8756 16.6117 -4.30851 -6.03465 -49.1261 6.8295
lowerback 16.6726 -0.606091 2.73679
upperback -2.37807 -0.2877 -0.424206
thorax -12.0617 -0.343434 -1.94689
lowerneck 7.881 9.40822 17.055
upperneck -29.9471 9.73573 -24.8867
head -7.84771 5.35132 -12.6969
rclavicle -1.04362e-014 -2.06736e-014
rhumerus -20.1185 -36.4366 -5.78917
rradius 113.651
rwrist 14.0892
rhand -40.0826 21.8495
rfingers 7.12502
rthumb -13.0474 -7.72245
lclavicle -1.04362e-014 -2.06736e-014
lhumerus -34.6417 25.7855 -15.593
lradius 94.2356
lwrist 13.8874
lhand -32.4021 27.6518
lfingers 7.12502
lthumb -5.63694 57.5568
rfemur -22.3652 -33.6895 2.16907
rtibia 58.0205
rfoot -22.1555 -5.8061
rtoes 18.8318
lfemur -33.1659 48.7011 2.3658
ltibia 73.4128
lfoot 4.87922 -3.52107
ltoes -33.5845
402
root 7.88067 16.5625 -4.3119 -6.2347 -49.1651 6.92075
lowerback 17.0532 -0.485901 2.54522
upperback -2.44601 -0.181919 -0.638326
thorax -12.357 -0.29531 -2.10495
lowerneck 7.77638 9.34707 17.2295
upperneck -30.1001 9.64621 -24.8705
head -7.89008 5.27956 -12.7363
rclavicle -1.59773e-014 6.36111e-015
rhumerus -20.0974 -36.7493 -5.44055
rradius 113.196
rwrist 12.5538
rhand -35.621 20.17
rfingers 7.12502
rthumb -8.74406 -9.62892
lclavicle -1.59773e-014 6.36111e-015
lhumerus -34.6132 27.0527 -16.816
lradius 94.9527
lwrist 17.2347
lhand -33.0316 28.82
lfingers 7.12502
lthumb -6.24477 58.7079
rfemur -22.1973 -33.3725 2.41103
rtibia 57.5909
rfoot -24.1674 -6.68418
rtoes 22.3891
lfemur -33.4152 48.8666 3.10834
ltibia 72.9766
lfoot 4.96527 -3.50356
ltoes -31.3649
403
root 7.88674 16.5358 -4.31703 -6.13367 -49.2304 6.79867
lowerback 17.3264 -0.354445 2.35234
upperback -2.56059 -0.0555469 -0.764131
thorax -12.6417 -0.233915 -2.17206
lowerneck 7.97924 9.22799 17.3065
upperneck -30.5662 9.47504 -24.8177
head -8.12971 5.17679 -12.8197
rclavicle -2.55811e-014 2.14687e-014
rhumerus -20.0025 -37.1641 -4.94931
rradius 112.778
rwrist 10.8526
rhand -30.6483 18.3046
rfingers 7.12502
rthumb -3.94356 -11.6386
lclavicle -2.55811e-014 2.14687e-014
lhumerus -34.3513 28.5084 -17.9949
lradius 95.4997
lwrist 20.5628
lhand -33.7723 29.7128
lfingers 7.12502
lthumb -6.95979 59.5784
rfemur -22.322 -32.9373 2.91512
rtibia 57.4117
rfoot -25.4593 -7.71323
rtoes 24.4544
lfemur -33.7958 48.9535 3.78378
ltibia 72.32
lfoot 4.76591 -3.96118
ltoes -34.0145
